<svg width="78" height="78" viewBox="0 0 78 78" fill="none" xmlns="http://www.w3.org/2000/svg">
<path d="M69 60L69 78L2.16406e-06 9L17.9995 9.00004L69 60Z" fill="#F28360"/>
<path d="M14.1016 9.77475L15.9174 11.5906C16.106 11.7792 16.2399 11.9772 16.3191 12.1846C16.402 12.3882 16.436 12.5919 16.4209 12.7955C16.4096 12.9954 16.3511 13.1934 16.2455 13.3895C16.1437 13.5894 16.006 13.776 15.8326 13.9495C15.6553 14.1268 15.4686 14.2682 15.2725 14.3738C15.084 14.4794 14.8879 14.5397 14.6842 14.5548C14.4843 14.5736 14.2807 14.5435 14.0733 14.4643C13.8696 14.3813 13.6679 14.2399 13.468 14.04L12.1613 12.7333L10.6792 14.2154L10.17 13.7063L14.1016 9.77475ZM12.6308 12.2638L13.847 13.48C14.1034 13.7364 14.3561 13.8496 14.605 13.8194C14.8615 13.7892 15.1009 13.6629 15.3234 13.4404C15.5422 13.2217 15.661 12.9784 15.6798 12.7107C15.7025 12.4467 15.5969 12.1978 15.363 11.964L14.1468 10.7477L12.6308 12.2638ZM17.361 17.8199C17.6363 17.5446 17.789 17.2485 17.8192 16.9317C17.8343 16.7658 17.8097 16.6017 17.7456 16.4396C17.6853 16.2736 17.5816 16.1171 17.4345 15.9701C17.2912 15.8268 17.1404 15.7249 16.982 15.6646C16.8273 15.6005 16.669 15.5741 16.5068 15.5854C16.1825 15.608 15.8751 15.7645 15.5847 16.0549L15.4546 16.185C15.2962 16.3434 15.1661 16.5075 15.0643 16.6772C14.9625 16.8469 14.904 17.0222 14.8889 17.2033C14.8738 17.3541 14.8965 17.505 14.9568 17.6558C15.0209 17.8104 15.1303 17.965 15.2849 18.1197C15.4282 18.263 15.5715 18.3648 15.7148 18.4251C15.8581 18.4855 16.0033 18.5138 16.1504 18.51C16.3465 18.51 16.537 18.4553 16.7217 18.3459C16.9065 18.2366 17.0819 18.0989 17.2478 17.933L17.361 17.8199ZM16.2522 19.1096C15.9807 19.1172 15.728 19.0719 15.4942 18.9739C15.2642 18.872 15.053 18.725 14.8606 18.5326C14.6759 18.3478 14.5325 18.1366 14.4307 17.8991C14.3289 17.6615 14.2799 17.4088 14.2836 17.141C14.2836 16.8544 14.3553 16.5942 14.4986 16.3604C14.6457 16.1303 14.821 15.9135 15.0247 15.7099L15.1322 15.6024C15.332 15.41 15.5319 15.2592 15.7318 15.1498C15.9317 15.0405 16.1825 14.982 16.4842 14.9745C16.7519 14.9707 16.9989 15.0178 17.2252 15.1159C17.4515 15.2139 17.6589 15.3572 17.8475 15.5458C18.036 15.7344 18.1774 15.9399 18.2717 16.1624C18.3735 16.3849 18.4245 16.6281 18.4245 16.8921C18.4207 17.1674 18.3679 17.4163 18.2661 17.6388C18.1642 17.8613 18.0153 18.0706 17.8192 18.2667L17.7004 18.3855C17.4967 18.5892 17.2818 18.7589 17.0555 18.8947C16.8292 19.0304 16.5615 19.1021 16.2522 19.1096ZM20.0217 22.1324L22.9011 20.5994L23.2009 21.1707L19.5748 23.111L19.094 22.6302L20.1292 20.4297L17.9287 21.4649L17.4479 20.9841L19.3882 17.358L19.9595 17.6578L18.4265 20.5372L20.7854 19.4002L21.1588 19.7735L20.0217 22.1324ZM22.5735 23.5076C22.2417 23.8395 22.0757 24.1563 22.0757 24.458C22.0795 24.7634 22.236 25.0708 22.5453 25.38C22.6961 25.5309 22.8545 25.6289 23.0204 25.6742C23.1901 25.7157 23.3712 25.7232 23.5635 25.6968L23.8181 26.3021C23.5239 26.3775 23.226 26.37 22.9243 26.2795C22.6226 26.189 22.3473 26.0192 22.0984 25.7703C21.8457 25.5177 21.6647 25.2688 21.5553 25.0236C21.4535 24.7785 21.4101 24.539 21.4252 24.3052C21.4441 24.0676 21.5176 23.8357 21.6458 23.6094C21.7778 23.3794 21.9532 23.155 22.1719 22.9363L22.2341 22.874C22.3284 22.7798 22.4208 22.6911 22.5113 22.6082C22.6056 22.5214 22.7055 22.4441 22.8111 22.3762C22.9167 22.3083 23.0317 22.2537 23.1562 22.2122C23.2844 22.1669 23.4277 22.1405 23.5861 22.133C23.8576 22.1179 24.116 22.165 24.3611 22.2744C24.61 22.38 24.8287 22.5271 25.0173 22.7156C25.2285 22.9268 25.3812 23.1474 25.4755 23.3775C25.5736 23.6113 25.6169 23.8432 25.6056 24.0733C25.5981 24.3071 25.5396 24.5353 25.4303 24.7578C25.3209 24.9803 25.1663 25.1915 24.9664 25.3913L24.7118 25.6459L22.5735 23.5076ZM24.6213 24.7634L24.6722 24.7125C24.7665 24.6182 24.8401 24.507 24.8929 24.3788C24.9456 24.2505 24.9702 24.1167 24.9664 23.9771C24.9664 23.8338 24.9362 23.6905 24.8759 23.5472C24.8193 23.4001 24.7269 23.2625 24.5987 23.1343C24.478 23.0136 24.346 22.9231 24.2027 22.8627C24.0594 22.8024 23.9142 22.7703 23.7671 22.7666C23.6276 22.7628 23.4918 22.7854 23.3598 22.8344C23.2316 22.8872 23.1185 22.9627 23.0204 23.0607L22.9695 23.1116L24.6213 24.7634ZM27.0474 25.4585C27.2322 25.417 27.4019 25.4133 27.5565 25.4472C27.7187 25.4811 27.8677 25.566 28.0034 25.7018C28.1505 25.8488 28.2655 26.0468 28.3485 26.2957L27.7262 26.5786C27.6697 26.4013 27.5924 26.2637 27.4943 26.1656C27.3962 26.0676 27.2831 26.0072 27.1549 25.9846C27.0342 25.962 26.906 25.9695 26.7702 26.0072C26.6382 26.0487 26.5006 26.1185 26.3573 26.2165C26.2177 26.3108 26.0801 26.4258 25.9443 26.5616L24.4849 28.0211L23.9984 27.5346L26.148 25.385C26.3478 25.1851 26.4911 24.9551 26.5779 24.6948L27.2341 24.9324C27.2115 25.0154 27.1813 25.0984 27.1436 25.1813C27.1134 25.2643 27.07 25.3454 27.0135 25.4246L27.0474 25.4585ZM27.6559 28.5899C27.324 28.9218 27.1581 29.2386 27.1581 29.5403C27.1618 29.8458 27.3183 30.1531 27.6276 30.4624C27.7784 30.6132 27.9368 30.7113 28.1028 30.7565C28.2725 30.798 28.4535 30.8055 28.6458 30.7791L28.9004 31.3844C28.6062 31.4598 28.3083 31.4523 28.0066 31.3618C27.7049 31.2713 27.4296 31.1016 27.1807 30.8527C26.928 30.6 26.747 30.3511 26.6376 30.106C26.5358 29.8608 26.4924 29.6214 26.5075 29.3875C26.5264 29.15 26.5999 28.918 26.7281 28.6918C26.8601 28.4617 27.0355 28.2373 27.2542 28.0186L27.3165 27.9564C27.4107 27.8621 27.5031 27.7735 27.5936 27.6905C27.6879 27.6038 27.7879 27.5264 27.8935 27.4586C27.9991 27.3907 28.1141 27.336 28.2385 27.2945C28.3668 27.2493 28.5101 27.2229 28.6684 27.2153C28.94 27.2002 29.1983 27.2474 29.4434 27.3567C29.6923 27.4623 29.9111 27.6094 30.0996 27.798C30.3108 28.0092 30.4636 28.2298 30.5578 28.4598C30.6559 28.6936 30.6993 28.9256 30.6879 29.1556C30.6804 29.3894 30.6219 29.6176 30.5126 29.8401C30.4032 30.0626 30.2486 30.2738 30.0487 30.4737L29.7942 30.7282L27.6559 28.5899ZM29.7037 29.8458L29.7546 29.7948C29.8488 29.7006 29.9224 29.5893 29.9752 29.4611C30.028 29.3329 30.0525 29.199 30.0487 29.0595C30.0487 28.9161 30.0186 28.7728 29.9582 28.6295C29.9016 28.4825 29.8092 28.3448 29.681 28.2166C29.5603 28.0959 29.4284 28.0054 29.285 27.9451C29.1417 27.8847 28.9965 27.8527 28.8495 27.8489C28.7099 27.8451 28.5742 27.8677 28.4422 27.9168C28.314 27.9696 28.2008 28.045 28.1028 28.143L28.0519 28.194L29.7037 29.8458ZM33.2724 32.0682C33.2423 31.9551 33.1857 31.8344 33.1027 31.7062C33.0197 31.5779 32.9236 31.4591 32.8142 31.3498C32.5314 31.0669 32.224 30.9368 31.8921 30.9594C31.5641 30.9783 31.2473 31.1405 30.9418 31.4459L30.6024 31.7853C30.493 31.8947 30.4006 32.0097 30.3252 32.1304C30.2498 32.2511 30.1989 32.3774 30.1725 32.5094C30.1498 32.6376 30.1555 32.764 30.1894 32.8884C30.2271 33.0167 30.3063 33.1411 30.427 33.2618C30.5364 33.3712 30.6986 33.4654 30.9135 33.5446C31.1322 33.6201 31.3962 33.6502 31.7055 33.6351L33.2724 32.0682ZM35.3881 30.9255L32.0392 34.2744C31.8997 34.4139 31.796 34.544 31.7281 34.6647C31.664 34.7816 31.6055 34.923 31.5527 35.089L31.0323 34.5685C31.0436 34.5044 31.0719 34.4309 31.1172 34.3479C31.1662 34.2612 31.2152 34.1895 31.2642 34.1329C31.1134 34.1329 30.9625 34.1179 30.8117 34.0877C30.6835 34.0651 30.5477 34.0198 30.4044 33.9519C30.2573 33.8878 30.1253 33.7973 30.0084 33.6804C29.8048 33.4767 29.6652 33.2693 29.5898 33.0581C29.5144 32.847 29.4861 32.6376 29.505 32.4302C29.5314 32.2228 29.6011 32.0211 29.7143 31.8249C29.8274 31.6288 29.9707 31.4441 30.1442 31.2706L30.4157 30.999C30.8984 30.5163 31.3774 30.275 31.8526 30.275C32.3315 30.2712 32.8067 30.505 33.2781 30.9764C33.4553 31.1537 33.6005 31.3705 33.7137 31.627L34.7658 30.5748L35.3881 30.9255ZM34.6922 37.312C34.7375 37.4327 34.7997 37.5515 34.8789 37.6684C34.9618 37.7815 35.0524 37.8871 35.1504 37.9852C35.2334 38.0681 35.3182 38.1417 35.405 38.2058C35.4955 38.2737 35.5898 38.3265 35.6878 38.3642C35.8047 38.4132 35.9216 38.4358 36.0385 38.4321C36.1592 38.4245 36.2742 38.3962 36.3836 38.3472C36.493 38.2982 36.5967 38.236 36.6947 38.1605C36.8003 38.0851 36.8946 38.0059 36.9776 37.9229L37.1699 37.7306C37.2944 37.6062 37.3981 37.4874 37.481 37.3742C37.5678 37.2649 37.6319 37.1555 37.6734 37.0461C37.7299 36.8991 37.7431 36.7425 37.713 36.5766C37.6903 36.4107 37.6187 36.2674 37.498 36.1467C37.3849 36.0336 37.2642 35.9468 37.136 35.8865C37.0115 35.8299 36.8852 35.7979 36.757 35.7903C36.6325 35.779 36.5081 35.7903 36.3836 35.8243C36.2629 35.8544 36.1479 35.9016 36.0385 35.9657L34.6922 37.312ZM36.7513 35.3321C37.0115 35.3057 37.2359 35.3302 37.4245 35.4056C37.613 35.4811 37.7771 35.5886 37.9166 35.7281C38.0976 35.9091 38.224 36.1335 38.2956 36.4013C38.371 36.6728 38.3692 36.95 38.29 37.2328C38.2372 37.4289 38.1523 37.608 38.0354 37.7702C37.9223 37.9286 37.7846 38.0889 37.6225 38.251L37.4923 38.3812C37.0134 38.8601 36.5477 39.0996 36.0951 39.0996C35.6463 39.0958 35.19 38.862 34.7261 38.3981C34.5338 38.2058 34.3679 38.0021 34.2283 37.7872C34.085 37.576 33.97 37.3629 33.8833 37.148L37.6111 33.4201L38.2334 33.7708L36.7174 35.2982L36.7513 35.3321ZM37.3983 42.145C37.1682 42.2469 36.9476 42.294 36.7364 42.2865C36.5252 42.2865 36.3404 42.2073 36.182 42.0489C36.1292 41.9961 36.0783 41.9338 36.0293 41.8622C35.9803 41.7981 35.9256 41.7095 35.8652 41.5963L36.2216 41.2399L36.4592 41.4775C36.546 41.5643 36.6327 41.6246 36.7194 41.6585C36.8024 41.6963 36.9023 41.6868 37.0192 41.6303L37.766 41.2682C37.683 41.1325 37.6396 40.9873 37.6358 40.8326C37.6358 40.6818 37.6679 40.5328 37.732 40.3858L39.1802 37.15L39.7854 37.4838L38.3599 40.6743C38.3373 40.7271 38.3241 40.7742 38.3203 40.8157C38.3203 40.8609 38.3411 40.9043 38.3825 40.9458L38.4052 40.9684L41.7144 39.4128L42.0482 40.0181L37.3983 42.145ZM43.8107 43.4211C43.5882 43.6436 43.4034 43.8585 43.2563 44.0659C43.113 44.2771 43.0206 44.4864 42.9791 44.6938C42.9414 44.905 42.9641 45.12 43.047 45.3387C43.1375 45.5575 43.3054 45.7894 43.5505 46.0345C43.724 46.208 43.8956 46.3419 44.0653 46.4362C44.2387 46.5267 44.4499 46.5682 44.6988 46.5606L44.7271 47.3809C44.3764 47.3922 44.0539 47.3299 43.7598 47.1942C43.4656 47.0584 43.1979 46.8699 42.9565 46.6285C42.6284 46.3004 42.3965 45.9704 42.2607 45.6385C42.1287 45.3104 42.0778 44.9842 42.108 44.6599C42.1382 44.3356 42.24 44.015 42.4135 43.6982C42.5945 43.3815 42.8358 43.0722 43.1375 42.7705L43.3468 42.5612C43.6335 42.2746 43.9295 42.0578 44.235 41.9107C44.548 41.7636 44.861 41.6882 45.174 41.6844C45.4908 41.6844 45.8038 41.7561 46.113 41.8994C46.4261 42.0464 46.7296 42.2671 47.0238 42.5612C47.2538 42.7913 47.4405 43.0534 47.5838 43.3475C47.7271 43.6417 47.7969 43.9566 47.7931 44.2922L46.9276 44.2979C46.9276 44.0565 46.8861 43.8491 46.8032 43.6756C46.7202 43.5021 46.5939 43.3305 46.4242 43.1608C46.0206 42.7573 45.6152 42.5669 45.2079 42.5895C44.8082 42.6121 44.4047 42.8271 43.9974 43.2344L43.8107 43.4211ZM49.1225 46.9566C49.2771 47.1112 49.3959 47.279 49.4789 47.46C49.5694 47.6411 49.6203 47.824 49.6316 48.0088C49.6467 48.1973 49.6203 48.3821 49.5524 48.5631C49.4845 48.7442 49.3752 48.9101 49.2243 49.0609L47.3745 50.9107L46.7579 50.2941L48.5398 48.5122C48.7208 48.3312 48.8057 48.1521 48.7944 47.9748C48.7868 47.8013 48.7076 47.6392 48.5568 47.4883C48.3532 47.2847 48.1401 47.1734 47.9176 47.1546C47.7026 47.1357 47.4518 47.1829 47.1652 47.296L45.4625 48.9987L44.8459 48.3821L48.6699 44.5581L49.4619 44.9993L47.9628 46.4984C48.2042 46.4758 48.4154 46.5059 48.5964 46.5889C48.7812 46.6681 48.9566 46.7907 49.1225 46.9566ZM49.3813 51.9559C49.4492 52.0238 49.5378 52.086 49.6472 52.1426C49.7603 52.1954 49.8791 52.2425 50.0036 52.284C50.128 52.3255 50.2506 52.3613 50.3713 52.3915C50.4995 52.4216 50.6108 52.4499 50.705 52.4763L50.9992 52.1822L50.0092 51.1922C49.8886 51.0715 49.7641 51.0112 49.6359 51.0112C49.5114 51.015 49.3889 51.0772 49.2682 51.1979C49.1362 51.3299 49.0909 51.4581 49.1324 51.5825C49.1739 51.707 49.2569 51.8314 49.3813 51.9559ZM52.1532 49.8515C52.3116 50.0099 52.4398 50.1834 52.5379 50.372C52.6397 50.5643 52.7 50.7604 52.7189 50.9603C52.7453 51.1601 52.7264 51.3563 52.6623 51.5486C52.602 51.7447 52.4888 51.9257 52.3229 52.0916L51.0897 53.3248C50.9615 53.4531 50.8597 53.5775 50.7842 53.6982C50.7163 53.8189 50.656 53.9659 50.6032 54.1394L49.9527 53.4889C49.964 53.4172 49.9942 53.3418 50.0432 53.2626C50.0922 53.1834 50.1393 53.1136 50.1846 53.0533C49.9168 53.0118 49.6604 52.9477 49.4153 52.861C49.1777 52.7742 48.9627 52.6347 48.7704 52.4424C48.6422 52.3141 48.5385 52.169 48.4593 52.0068C48.3838 51.8484 48.3386 51.6862 48.3235 51.5203C48.3122 51.3506 48.331 51.1847 48.3801 51.0225C48.4366 50.8603 48.5309 50.7133 48.6629 50.5813C48.8024 50.4417 48.9533 50.3399 49.1155 50.2758C49.2776 50.2117 49.4417 50.1834 49.6076 50.1909C49.7773 50.2023 49.9414 50.2456 50.0998 50.321C50.2619 50.4002 50.4109 50.5077 50.5466 50.6435L51.5422 51.6391L51.6101 51.5712C51.8175 51.3638 51.9156 51.1639 51.9043 50.9716C51.8967 50.783 51.7987 50.5907 51.6101 50.3946C51.4367 50.2211 51.2651 50.0872 51.0954 49.9929C50.9332 49.8987 50.7427 49.8176 50.524 49.7497L50.7163 49.0256C51.0067 49.1048 51.2651 49.2085 51.4913 49.3368C51.7176 49.465 51.9382 49.6366 52.1532 49.8515ZM53.2196 52.072L53.7288 51.5629L54.0512 51.8853L54.6621 51.2744L55.4145 51.7552L54.6678 52.5019L55.1203 52.9544L54.4528 53.3052L54.1587 53.011L52.637 54.5327C52.4107 54.759 52.4145 54.989 52.6483 55.2228L52.7897 55.3643L52.3032 55.8508C52.2316 55.8168 52.1637 55.7791 52.0996 55.7376C52.0392 55.6999 51.9808 55.6528 51.9242 55.5962C51.8186 55.4906 51.7319 55.3737 51.664 55.2455C51.5961 55.1248 51.5565 54.9985 51.5452 54.8665C51.5339 54.7345 51.5528 54.5987 51.6018 54.4592C51.6583 54.3196 51.7545 54.182 51.8903 54.0462L53.5421 52.3944L53.2196 52.072ZM54.0301 55.0207C54.0603 54.9755 54.098 54.9189 54.1433 54.851C54.1923 54.7794 54.2356 54.7247 54.2734 54.687C54.3148 54.6455 54.3676 54.6003 54.4318 54.5512C54.5034 54.5022 54.5637 54.4645 54.6128 54.4381L56.1118 55.9372C56.0854 55.9862 56.0458 56.0446 55.993 56.1125C55.9478 56.1804 55.9063 56.2332 55.8686 56.2709C55.8271 56.3124 55.7724 56.3595 55.7045 56.4123C55.6404 56.4614 55.582 56.4972 55.5292 56.5198L54.0301 55.0207ZM60.691 58.0838C60.7023 57.8387 60.6551 57.6181 60.5496 57.422C60.4477 57.2297 60.3176 57.0543 60.1592 56.8959C59.9216 56.6583 59.6897 56.4867 59.4634 56.3811C59.2409 56.2793 59.0184 56.2378 58.7959 56.2567C58.581 56.2755 58.3641 56.3491 58.1454 56.4773C57.9342 56.6055 57.7192 56.779 57.5005 56.9977L57.3591 57.1392C56.9329 57.5653 56.7104 58.0065 56.6916 58.4629C56.6727 58.9192 56.9028 59.3868 57.3817 59.8658C57.4911 59.9751 57.6099 60.0675 57.7381 60.1429C57.8701 60.2221 58.0059 60.29 58.1454 60.3466L58.9204 59.5716L58.202 58.8532L58.8016 58.2536L60.1366 59.5886L58.3717 61.3535C58.0888 61.2668 57.8003 61.1442 57.5062 60.9858C57.2196 60.8274 56.9688 60.6407 56.7538 60.4258C56.4483 60.1203 56.2164 59.8016 56.058 59.4698C55.8996 59.1379 55.8185 58.8042 55.8148 58.4685C55.8148 58.1291 55.8883 57.7916 56.0354 57.4559C56.19 57.1203 56.4238 56.796 56.7368 56.483L56.8669 56.3528C57.1649 56.0549 57.4741 55.8249 57.7947 55.6627C58.1228 55.5005 58.4546 55.4138 58.7903 55.4025C59.1259 55.3912 59.4578 55.4591 59.7859 55.6061C60.1177 55.7494 60.4421 55.9795 60.7589 56.2963C61.0078 56.5452 61.2076 56.828 61.3585 57.1448C61.5093 57.4616 61.5697 57.801 61.5395 58.163L60.691 58.0838ZM62.6433 58.3165L64.5893 60.2625C64.7741 60.4473 64.908 60.6415 64.9909 60.8451C65.0739 61.0488 65.1078 61.2524 65.0928 61.4561C65.0814 61.656 65.0249 61.8558 64.9231 62.0557C64.825 62.2518 64.6855 62.4404 64.5044 62.6214C64.3234 62.8024 64.1292 62.9476 63.9218 63.057C63.7181 63.1701 63.5107 63.238 63.2995 63.2606C63.0959 63.2832 62.8885 63.2568 62.6773 63.1814C62.4699 63.1022 62.27 62.9665 62.0777 62.7741L60.7709 61.4674L59.3511 62.8873L58.7118 62.248L62.6433 58.3165ZM61.3705 60.8678L62.4567 61.9539C62.7056 62.2028 62.9413 62.3291 63.1638 62.3329C63.3938 62.3367 63.6276 62.2198 63.8652 61.9822C64.0915 61.7559 64.1914 61.5315 64.165 61.309C64.1424 61.0903 64.0142 60.864 63.7804 60.6302L62.6943 59.5441L61.3705 60.8678ZM63.8049 67.3411L63.1656 66.7018L66.5032 63.3643L65.2587 62.1198L65.8526 61.5258L69.0431 64.7163L68.2625 65.1236L67.1424 64.0035L63.8049 67.3411Z" fill="#272D37"/>
</svg>
