<svg width="24" height="17" viewBox="0 0 24 17" fill="none" xmlns="http://www.w3.org/2000/svg">
<path fill-rule="evenodd" clip-rule="evenodd" d="M12 4.62489C12 4.62489 13.864 4.62489 15.182 5.94291C15.182 5.94291 16.5 7.26093 16.5 9.12489C16.5 9.12489 16.5 10.9888 15.182 12.3069C15.182 12.3069 13.864 13.6249 12 13.6249C12 13.6249 10.136 13.6249 8.81802 12.3069C8.81802 12.3069 7.5 10.9888 7.5 9.12489C7.5 9.12489 7.5 7.26093 8.81802 5.94291C8.81802 5.94291 10.136 4.62489 12 4.62489ZM12 6.12489C12 6.12489 10.7574 6.12489 9.87868 7.00357C9.87868 7.00357 9 7.88225 9 9.12489C9 9.12489 9 10.3675 9.87868 11.2462C9.87868 11.2462 10.7574 12.1249 12 12.1249C12 12.1249 13.2426 12.1249 14.1213 11.2462C14.1213 11.2462 15 10.3675 15 9.12489C15 9.12489 15 7.88225 14.1213 7.00357C14.1213 7.00357 13.2426 6.12489 12 6.12489Z" fill="#EAF1F2"/>
<path d="M22.274 9.57356C22.3931 9.73289 22.5708 9.83872 22.7677 9.86718C22.8032 9.87232 22.8391 9.8749 22.875 9.8749L22.8763 9.8749C23.0377 9.87461 23.1947 9.82227 23.324 9.72565C23.5135 9.58406 23.625 9.36141 23.625 9.1249L23.625 9.11631C23.6231 8.9574 23.5709 8.80318 23.4758 8.67589L23.4751 8.67505C22.5736 7.46926 21.227 6.79594 21.227 6.79594C19.8799 6.12238 18.3738 6.1249 18.3738 6.1249L18.375 6.1249C18.7892 6.1249 19.125 6.46068 19.125 6.8749C19.125 7.28846 18.7902 7.62398 18.3767 7.62489L22.274 9.57356Z" fill="#EAF1F2"/>
<path d="M3.44384 8.13758C4.47305 7.62297 5.62375 7.62489 5.62375 7.62489L5.6248 7.6249C5.63639 7.6249 5.64819 7.62463 5.65977 7.62409C5.84603 7.61544 6.02238 7.53773 6.15444 7.40611C6.29533 7.2657 6.37467 7.07506 6.375 6.87615L6.375 6.87511C6.375 6.82976 6.37088 6.78427 6.36271 6.73966C6.29751 6.384 5.98783 6.1255 5.62625 6.1249L5.625 6.12489C4.11958 6.12266 2.77302 6.79594 2.77302 6.79594C1.42638 7.46925 0.524888 8.67505 0.524888 8.67505L0.524345 8.67577C0.427356 8.80554 0.375 8.96305 0.375 9.1249L0.375041 9.13275C0.37539 9.16604 0.377954 9.19926 0.382716 9.2322C0.411176 9.42907 0.516675 9.60657 0.676004 9.72565C0.805645 9.82254 0.963152 9.8749 1.125 9.8749C1.13503 9.8749 1.14505 9.87469 1.15507 9.87429C1.38084 9.86523 1.59049 9.75488 1.72575 9.57389C2.41463 8.65218 3.44384 8.13758 3.44384 8.13758Z" fill="#EAF1F2"/>
<path d="M14.786 14.4258C16.064 15.224 16.7254 16.5776 16.7254 16.5776L16.7258 16.5785C16.8516 16.836 17.1134 16.9999 17.4 16.9999L17.4205 16.9996C17.5276 16.9967 17.6328 16.9708 17.7291 16.9238C17.9866 16.7981 18.15 16.5365 18.15 16.2499L18.1497 16.2293C18.1468 16.1223 18.1209 16.017 18.0739 15.9208C17.2239 14.1803 15.5806 13.1536 15.5806 13.1536C13.9374 12.1273 12 12.1273 12 12.1273C10.0626 12.1273 8.41936 13.1536 8.41936 13.1536C6.77641 14.1797 5.92633 15.9202 5.92633 15.9202C5.87626 16.0227 5.84999 16.1358 5.84999 16.2499L5.85005 16.2596C5.85109 16.3393 5.86483 16.4184 5.89074 16.4937C5.95542 16.6818 6.09217 16.8365 6.27091 16.9238C6.37339 16.9739 6.48594 16.9999 6.59999 16.9999L6.61721 16.9997C6.89756 16.9932 7.1509 16.8309 7.27394 16.579C7.93538 15.2244 9.21395 14.4258 9.21395 14.4258C10.4925 13.6273 12 13.6273 12 13.6273C13.5074 13.6273 14.786 14.4258 14.786 14.4258Z" fill="#EAF1F2"/>
<path d="M7.26176 2.33426C7.70944 2.81077 7.83204 3.45299 7.83204 3.45299C7.86933 3.64838 7.98272 3.82095 8.14725 3.93273C8.27158 4.0172 8.41842 4.06237 8.56873 4.06237L8.5736 4.06235C8.61916 4.06206 8.6646 4.05761 8.70936 4.04907C9.06296 3.98157 9.31874 3.67236 9.31874 3.31237L9.31872 3.30814C9.31846 3.26237 9.31402 3.21671 9.30543 3.17174C9.10111 2.10137 8.35497 1.30718 8.35497 1.30718C7.60884 0.512996 6.55328 0.242362 6.55328 0.242362C5.49772 -0.0282722 4.4615 0.308937 4.4615 0.308937C3.42528 0.646147 2.73116 1.48617 2.73116 1.48617C2.03703 2.3262 1.90119 3.4074 1.90119 3.4074C1.76535 4.4886 2.2301 5.47423 2.2301 5.47423C2.69486 6.45985 3.61545 7.04291 3.61545 7.04291C4.53572 7.62577 5.6248 7.6249 5.6248 7.6249L5.62575 7.62487C5.82466 7.62467 6.01534 7.54545 6.15585 7.40466C6.29618 7.26405 6.375 7.07376 6.375 6.87511L6.37498 6.87411C6.37456 6.46019 6.03892 6.12489 5.625 6.12489L5.62422 6.12487C4.9704 6.12553 4.41805 5.7757 4.41805 5.7757C3.86569 5.42586 3.58684 4.83448 3.58684 4.83448C3.30799 4.24311 3.38949 3.59439 3.38949 3.59439C3.471 2.94567 3.88747 2.44165 3.88747 2.44165C4.30395 1.93764 4.92568 1.73531 4.92568 1.73531C5.54741 1.53298 6.18074 1.69537 6.18074 1.69537C6.81408 1.85775 7.26176 2.33426 7.26176 2.33426Z" fill="#EAF1F2"/>
<path d="M19.5819 5.7757C19.0296 6.12553 18.3758 6.12487 18.3758 6.12487L18.375 6.1249C18.3633 6.1249 18.3515 6.12515 18.3397 6.1257L17.6258 6.91014C17.6346 7.09638 17.7124 7.27268 17.8441 7.40466C17.9846 7.54545 18.1753 7.62467 18.3742 7.62487L18.375 7.62487C19.4643 7.62577 20.3845 7.04291 20.3845 7.04291C21.3051 6.45985 21.7699 5.47423 21.7699 5.47423C22.2346 4.4886 22.0988 3.4074 22.0988 3.4074C21.963 2.3262 21.2688 1.48617 21.2688 1.48617C20.5747 0.646147 19.5385 0.308937 19.5385 0.308937C18.5023 -0.0282722 17.4467 0.242362 17.4467 0.242362C16.3912 0.512996 15.645 1.30718 15.645 1.30718C14.8989 2.10137 14.6946 3.17174 14.6946 3.17174C14.6857 3.2181 14.6813 3.26518 14.6813 3.31237C14.6813 3.33491 14.6823 3.35743 14.6843 3.37988C14.7144 3.71326 14.9618 3.9863 15.2906 4.04907C15.337 4.05792 15.3841 4.06237 15.4313 4.06237C15.4538 4.06237 15.4763 4.06135 15.4988 4.05932C15.8321 4.02919 16.1052 3.78179 16.168 3.45299C16.2906 2.81077 16.7382 2.33426 16.7382 2.33426C17.1859 1.85775 17.8193 1.69537 17.8193 1.69537C18.4526 1.53298 19.0743 1.73531 19.0743 1.73531C19.696 1.93764 20.1125 2.44165 20.1125 2.44165C20.529 2.94566 20.6105 3.59439 20.6105 3.59439C20.692 4.24311 20.4132 4.83448 20.4132 4.83448C20.1343 5.42586 19.5819 5.7757 19.5819 5.7757Z" fill="#EAF1F2"/>
</svg>
