<svg width="18" height="19" viewBox="0 0 18 19" fill="none" xmlns="http://www.w3.org/2000/svg">
<path fill-rule="evenodd" clip-rule="evenodd" d="M10.9393 18.5606C10.9393 18.5606 10.5 18.1213 10.5 17.5V13H7.5V17.5C7.5 17.5 7.5 18.1213 7.06066 18.5606C7.06066 18.5606 6.62132 19 6 19H1.5C1.5 19 0.87868 19 0.43934 18.5606C0.43934 18.5606 0 18.1213 0 17.5V8.82808C0 8.82808 0.00509495 8.5071 0.129657 8.22444C0.129657 8.22444 0.254218 7.94178 0.478787 7.72969L7.98935 0.904283C7.98935 0.904283 8.41737 0.512695 9 0.512695C9 0.512695 9.58263 0.512695 10.0125 0.905969L17.5107 7.71991C17.5107 7.71991 17.7458 7.94178 17.8703 8.22444C17.8703 8.22444 17.9949 8.5071 17.9999 8.81595L18 17.5C18 17.5 18 18.1213 17.5607 18.5606C17.5607 18.5606 17.1213 19 16.5 19H12C12 19 11.3787 19 10.9393 18.5606ZM12 17.5H16.5L16.5001 8.84022C16.5001 8.84022 16.5 8.83453 16.4977 8.82932C16.4977 8.82932 16.4968 8.8273 16.4972 8.82695C16.4972 8.82695 16.4979 8.82644 16.5015 8.82972L9 2.01269L8.99815 2.01438L1.50871 8.82022C1.50871 8.82022 1.50458 8.82413 1.50229 8.82933C1.50229 8.82933 1.50122 8.83176 1.50065 8.83165C1.50065 8.83165 1.5 8.83152 1.5 8.82815V17.5H6V13C6 13 6 12.3786 6.43934 11.9393C6.43934 11.9393 6.87868 11.5 7.5 11.5H10.5C10.5 11.5 11.1213 11.5 11.5607 11.9393C11.5607 11.9393 12 12.3786 12 13L12 17.5Z" fill="#EAF1F2"/>
</svg>
