<svg width="20" height="18" viewBox="0 0 20 18" fill="none" xmlns="http://www.w3.org/2000/svg">
<path d="M7.1819 1.47761C7.19009 1.47556 7.19825 1.47337 7.20637 1.47105C7.52818 1.37894 7.75 1.08473 7.75 0.75C7.75 0.688679 7.74248 0.62759 7.72761 0.5681C7.72556 0.559907 7.72337 0.55175 7.72105 0.543631C7.66873 0.360824 7.54893 0.204714 7.38588 0.106883C7.37232 0.098749 7.35851 0.0910466 7.34447 0.083787C7.23799 0.0287316 7.11987 4.47035e-08 7 0C6.93868 0 6.87759 0.00752051 6.8181 0.0223931L0.818098 1.52239C0.484223 1.60586 0.25 1.90585 0.25 2.25L0.25 15.75C0.25 16.1642 0.585786 16.5 1 16.5C1.06132 16.5 1.12241 16.4925 1.1819 16.4776L7.1819 14.9776C7.51578 14.8941 7.75 14.5942 7.75 14.25L7.74992 14.2392C7.74909 14.1815 7.7416 14.1241 7.72761 14.0681C7.67936 13.8751 7.55644 13.7092 7.38587 13.6069C7.26931 13.5369 7.13593 13.5 7 13.5H6.99911C6.93809 13.5001 6.8773 13.5076 6.8181 13.5224L1.75 14.7894V2.83558L7.1819 1.47761Z" fill="#EAF1F2"/>
<path fill-rule="evenodd" clip-rule="evenodd" d="M13.75 3.75V17.25C13.75 17.6642 13.4142 18 13 18C12.8836 18 12.7687 17.9729 12.6646 17.9208L6.66459 14.9208C6.4105 14.7938 6.25 14.5341 6.25 14.25V0.75C6.25 0.335786 6.58579 0 7 0C7.11643 0 7.23127 0.0271088 7.33541 0.0791796L13.3354 3.07918C13.5895 3.20622 13.75 3.46592 13.75 3.75ZM12.25 16.0365V4.21353L7.75 1.96353V13.7865L12.25 16.0365Z" fill="#EAF1F2"/>
<path d="M18.25 15.1644L12.8185 16.5223C12.4846 16.6058 12.25 16.9058 12.25 17.25L12.2501 17.2608C12.2509 17.3185 12.2584 17.3759 12.2724 17.4319C12.3206 17.6249 12.4436 17.7908 12.6141 17.8931C12.7307 17.9631 12.8641 18 13 18H13.0009C13.0619 17.9999 13.1227 17.9924 13.1819 17.9776L19.1819 16.4776C19.5158 16.3941 19.75 16.0942 19.75 15.75V2.25C19.75 1.83579 19.4142 1.5 19 1.5C18.9387 1.5 18.8776 1.50752 18.8181 1.52239L12.8182 3.02236C12.4842 3.10586 12.25 3.40585 12.25 3.75L12.2501 3.76083C12.2509 3.81852 12.2584 3.87593 12.2724 3.9319C12.3559 4.26578 12.6558 4.5 13 4.5L13.0108 4.49992C13.0685 4.49909 13.1259 4.4916 13.1819 4.47761L18.25 3.21058V15.1644Z" fill="#EAF1F2"/>
</svg>
