<svg width="20" height="20" viewBox="0 0 20 20" fill="none" xmlns="http://www.w3.org/2000/svg">
<path d="M18.1083 13.4814L17.0158 17.0335L14.8711 16.4695L18.1083 13.4814Z" fill="#E4761B" stroke="#E4761B" stroke-width="0.0571157"/>
<path d="M14.8711 16.4695L16.9397 13.7441L18.1083 13.4814L14.8711 16.4695Z" fill="#E4761B" stroke="#E4761B" stroke-width="0.0571157"/>
<path d="M16.501 10.8036L18.1084 13.4817L16.9398 13.7443L16.501 10.8036ZM16.501 10.8036L17.5353 10.1147L18.1084 13.4817L16.501 10.8036Z" fill="#F6851B" stroke="#F6851B" stroke-width="0.0571157"/>
<path d="M15.1846 8.77999L18.1576 7.60889L18.0098 8.25041L15.1846 8.77999ZM17.9158 9.0211L15.1846 8.77999L18.0098 8.25041L17.9158 9.0211Z" fill="#763D16" stroke="#763D16" stroke-width="0.0571157"/>
<path d="M17.9158 9.0211L17.5352 10.1147L15.1846 8.77999L17.9158 9.0211ZM18.5113 7.88013L18.0098 8.25041L18.1576 7.60889L18.5113 7.88013ZM17.9158 9.0211L18.0098 8.25041L18.4083 8.56902L17.9158 9.0211Z" fill="#763D16" stroke="#763D16" stroke-width="0.0571157"/>
<path d="M12.5654 15.604L13.3087 15.8322L14.8713 16.4694L12.5654 15.604Z" fill="#E2761B" stroke="#E2761B" stroke-width="0.0571157"/>
<path d="M17.5356 10.115L17.9162 9.02138L18.2431 9.26249L17.5356 10.115ZM17.5356 10.115L14.4507 9.13763L15.185 8.78027L17.5356 10.115Z" fill="#763D16" stroke="#763D16" stroke-width="0.0571157"/>
<path d="M15.9193 5.42627L15.185 8.78026L14.4507 9.13762L15.9193 5.42627Z" fill="#763D16" stroke="#763D16" stroke-width="0.0571157"/>
<path d="M18.1576 7.60916L15.1846 8.78026L15.9189 5.42627L18.1576 7.60916Z" fill="#763D16" stroke="#763D16" stroke-width="0.0571157"/>
<path d="M15.9189 5.42598L19.0218 5.08154L18.1577 7.60888L15.9189 5.42598Z" fill="#763D16" stroke="#763D16" stroke-width="0.0571157"/>
<path d="M17.5356 10.115L16.5014 10.8039L14.4507 9.1377L17.5356 10.115Z" fill="#F6851B" stroke="#F6851B" stroke-width="0.0571157"/>
<path d="M18.8875 2.66602L19.0218 5.08141L15.9189 5.42585L18.8875 2.66602Z" fill="#763D16" stroke="#763D16" stroke-width="0.0571157"/>
<path d="M18.8878 2.66602L12.6866 7.00167L12.606 4.061L18.8878 2.66602Z" fill="#E2761B" stroke="#E2761B" stroke-width="0.0571157"/>
<path d="M7.99414 3.70801L12.6059 4.06106L12.6865 7.00173L7.99414 3.70801Z" fill="#F6851B" stroke="#F6851B" stroke-width="0.0571157"/>
<path d="M14.4506 9.13762L12.6865 7.00209L15.9192 5.42627L14.4506 9.13762Z" fill="#763D16" stroke="#763D16" stroke-width="0.0571157"/>
<path d="M14.4504 9.1377L16.5011 10.8039L13.6221 11.1096L14.4504 9.1377Z" fill="#E4761B" stroke="#E4761B" stroke-width="0.0571157"/>
<path d="M13.6223 11.1094L12.6865 7.00195L14.4506 9.13749L13.6223 11.1094Z" fill="#E4761B" stroke="#E4761B" stroke-width="0.0571157"/>
<path d="M15.9192 5.42585L12.6865 7.00167L18.8878 2.66602L15.9192 5.42585Z" fill="#763D16" stroke="#763D16" stroke-width="0.0571157"/>
<path d="M8.0342 16.4006L9.49832 17.8687L7.50586 16.125L8.0342 16.4006Z" fill="#C0AD9E" stroke="#C0AD9E" stroke-width="0.0571157"/>
<path d="M14.8711 16.4695L15.5651 13.9336L16.9397 13.7441L14.8711 16.4695Z" fill="#CD6116" stroke="#CD6116" stroke-width="0.0571157"/>
<path d="M2.09717 9.33522L4.6314 6.77344L2.42402 9.02953L2.09717 9.33522Z" fill="#E2761B" stroke="#E2761B" stroke-width="0.0571157"/>
<path d="M16.9401 13.7442L15.5655 13.9336L16.5013 10.8035L16.9401 13.7442ZM12.6865 7.00172L10.2194 6.92423L7.99414 3.70801L12.6865 7.00172Z" fill="#F6851B" stroke="#F6851B" stroke-width="0.0571157"/>
<path d="M16.5012 10.8037L15.5654 13.9338L15.4893 12.4054L16.5012 10.8037Z" fill="#E4751F" stroke="#E4751F" stroke-width="0.0571157"/>
<path d="M13.6221 11.1094L16.5011 10.8037L15.4892 12.4054L13.6221 11.1094Z" fill="#CD6116" stroke="#CD6116" stroke-width="0.0571157"/>
<path d="M10.2192 6.92432L12.6863 7.00182L13.6221 11.1093L10.2192 6.92432Z" fill="#F6851B" stroke="#F6851B" stroke-width="0.0571157"/>
<path d="M10.2191 6.92438L3.56116 1L7.99384 3.70817L10.2191 6.92438ZM7.98936 17.3007L2.2045 19.0229L1.04932 14.7819L7.98936 17.3007Z" fill="#E4761B" stroke="#E4761B" stroke-width="0.0571157"/>
<path d="M2.95703 10.3946L5.14202 8.74561L6.9733 9.15463L2.95703 10.3946Z" fill="#763D16" stroke="#763D16" stroke-width="0.0571157"/>
<path d="M6.97337 9.15472L5.14209 8.7457L6.12265 4.85352L6.97337 9.15472Z" fill="#763D16" stroke="#763D16" stroke-width="0.0571157"/>
<path d="M2.42432 9.02977L5.14213 8.74561L2.95713 10.3946L2.42432 9.02977Z" fill="#763D16" stroke="#763D16" stroke-width="0.0571157"/>
<path d="M15.4892 12.4053L14.3608 11.8585L13.6221 11.1094L15.4892 12.4053Z" fill="#CD6116" stroke="#CD6116" stroke-width="0.0571157"/>
<path d="M2.42398 9.0296L2.23145 8.05225L5.14179 8.74543L2.42398 9.0296Z" fill="#763D16" stroke="#763D16" stroke-width="0.0571157"/>
<path d="M14.1279 13.0898L14.3608 11.8584L15.4891 12.4052L14.1279 13.0898Z" fill="#233447" stroke="#233447" stroke-width="0.0571157"/>
<path d="M15.5652 13.9337L14.1279 13.0898L15.4891 12.4053L15.5652 13.9337Z" fill="#F6851B" stroke="#F6851B" stroke-width="0.0571157"/>
<path d="M5.14179 8.7457L2.23145 8.05251L1.99414 7.23016L5.14179 8.7457ZM6.12235 4.85352L5.14179 8.7457L1.99414 7.23016L6.12235 4.85352ZM6.12235 4.85352L10.2192 6.92447L6.97306 9.15472L6.12235 4.85352Z" fill="#763D16" stroke="#763D16" stroke-width="0.0571157"/>
<path d="M6.97314 9.15457L10.2193 6.92432L11.6655 11.1739L6.97314 9.15457ZM11.6655 11.1739L7.17911 11.0834L6.97314 9.15457L11.6655 11.1739Z" fill="#E4761B" stroke="#E4761B" stroke-width="0.0571157"/>
<path d="M2.95703 10.3946L6.9733 9.15457L7.17926 11.0834L2.95703 10.3946ZM13.6223 11.1093L11.6657 11.1739L10.2194 6.92432L13.6223 11.1093Z" fill="#F6851B" stroke="#F6851B" stroke-width="0.0571157"/>
<path d="M14.3608 11.8585L14.128 13.0899L13.6221 11.1094L14.3608 11.8585Z" fill="#CD6116" stroke="#CD6116" stroke-width="0.0571157"/>
<path d="M3.56152 1L10.2195 6.92439L6.12262 4.85343L3.56152 1Z" fill="#763D16" stroke="#763D16" stroke-width="0.0571157"/>
<path d="M1.0498 14.782L6.66452 14.5581L7.98985 17.3007L1.0498 14.782Z" fill="#E4761B" stroke="#E4761B" stroke-width="0.0571157"/>
<path d="M7.98939 17.3005L6.66406 14.5579L9.42217 14.4287L7.98939 17.3005Z" fill="#CD6116" stroke="#CD6116" stroke-width="0.0571157"/>
<path d="M14.1284 13.0898L15.5657 13.9337L16.3582 15.7291L14.1284 13.0898ZM7.17943 11.0834L1.0498 14.7819L2.9572 10.3945L7.17943 11.0834ZM6.66452 14.558L1.0498 14.7819L7.17943 11.0834L6.66452 14.558ZM13.6225 11.1092L13.9896 12.3923L12.2166 12.4913L13.6225 11.1092ZM12.2166 12.4913L11.6658 11.1738L13.6225 11.1092L12.2166 12.4913Z" fill="#F6851B" stroke="#F6851B" stroke-width="0.0571157"/>
<path d="M9.49865 17.8691L7.98975 17.3008L13.2373 18.149L9.49865 17.8691Z" fill="#C0AD9E" stroke="#C0AD9E" stroke-width="0.0571157"/>
<path d="M2.95684 10.3946L2.09717 9.33548L2.42402 9.02979L2.95684 10.3946Z" fill="#763D16" stroke="#763D16" stroke-width="0.0571157"/>
<path d="M13.8328 17.5204L13.2373 18.149L7.98975 17.3008L13.8328 17.5204Z" fill="#D7C1B3" stroke="#D7C1B3" stroke-width="0.0571157"/>
<path d="M14.1149 15.9787L7.98975 17.3005L9.42253 14.4287L14.1149 15.9787Z" fill="#E4761B" stroke="#E4761B" stroke-width="0.0571157"/>
<path d="M7.98975 17.3008L14.1149 15.979L13.8328 17.5204L7.98975 17.3008Z" fill="#D7C1B3" stroke="#D7C1B3" stroke-width="0.0571157"/>
<path d="M1.99397 7.22988L1.79248 3.91895L6.12217 4.85324L1.99397 7.22988ZM2.4238 9.02959L1.8283 8.44834L2.23127 8.05224L2.4238 9.02959Z" fill="#763D16" stroke="#763D16" stroke-width="0.0571157"/>
<path d="M10.6621 12.0263L11.6651 11.1738L11.5218 13.2577L10.6621 12.0263Z" fill="#CD6116" stroke="#CD6116" stroke-width="0.0571157"/>
<path d="M11.6652 11.1738L10.6623 12.0263L9.20264 12.754L11.6652 11.1738Z" fill="#CD6116" stroke="#CD6116" stroke-width="0.0571157"/>
<path d="M16.3577 15.7291L16.0846 15.5354L14.1279 13.0898L16.3577 15.7291Z" fill="#F6851B" stroke="#F6851B" stroke-width="0.0571157"/>
<path d="M9.203 12.754L7.1792 11.0835L11.6656 11.1739L9.203 12.754Z" fill="#CD6116" stroke="#CD6116" stroke-width="0.0571157"/>
<path d="M11.5225 13.2577L11.6657 11.1738L12.2165 12.4913L11.5225 13.2577Z" fill="#E4751F" stroke="#E4751F" stroke-width="0.0571157"/>
<path d="M1.63135 7.5572L1.99402 7.22998L2.23133 8.05233L1.63135 7.5572Z" fill="#763D16" stroke="#763D16" stroke-width="0.0571157"/>
<path d="M11.522 13.2577L9.20264 12.754L10.6623 12.0264L11.522 13.2577Z" fill="#233447" stroke="#233447" stroke-width="0.0571157"/>
<path d="M6.12217 4.85343L1.79248 3.91914L3.56107 1L6.12217 4.85343Z" fill="#763D16" stroke="#763D16" stroke-width="0.0571157"/>
<path d="M13.2372 18.149L13.4835 18.7948L9.49854 17.8691L13.2372 18.149Z" fill="#C0AD9E" stroke="#C0AD9E" stroke-width="0.0571157"/>
<path d="M9.42203 14.4288L9.20264 12.7539L11.522 13.2577L9.42203 14.4288Z" fill="#F6851B" stroke="#F6851B" stroke-width="0.0571157"/>
<path d="M7.1792 11.0835L9.203 12.754L9.4224 14.4289L7.1792 11.0835Z" fill="#E4751F" stroke="#E4751F" stroke-width="0.0571157"/>
<path d="M12.2161 12.4914L13.9892 12.3924L16.0846 15.5354L12.2161 12.4914ZM7.17897 11.0835L9.42217 14.4289L6.66406 14.558L7.17897 11.0835Z" fill="#F6851B" stroke="#F6851B" stroke-width="0.0571157"/>
<path d="M12.2165 12.4912L14.4194 15.716L11.5225 13.2576L12.2165 12.4912Z" fill="#E4751F" stroke="#E4751F" stroke-width="0.0571157"/>
<path d="M11.5225 13.2578L14.4194 15.7163L14.1149 15.9789L11.5225 13.2578Z" fill="#F6851B" stroke="#F6851B" stroke-width="0.0571157"/>
<path d="M14.1142 15.9787L9.42188 14.4287L11.5218 13.2576L14.1142 15.9787ZM16.0843 15.5352L14.4187 15.716L12.2158 12.4912L16.0843 15.5352Z" fill="#F6851B" stroke="#F6851B" stroke-width="0.0571157"/>
<path d="M16.5233 17.0508L15.8069 18.4329L13.4831 18.7945L16.5233 17.0508ZM13.4831 18.7945L13.2368 18.1487L13.8323 17.5201L13.4831 18.7945Z" fill="#C0AD9E" stroke="#C0AD9E" stroke-width="0.0571157"/>
<path d="M13.8326 17.5201L14.2714 17.3522L13.4834 18.7945L13.8326 17.5201ZM13.4834 18.7945L14.2714 17.3522L16.5236 17.0508L13.4834 18.7945Z" fill="#C0AD9E" stroke="#C0AD9E" stroke-width="0.0571157"/>
<path d="M16.0848 15.5352L16.6355 15.8581L14.9609 16.0518L16.0848 15.5352Z" fill="#161616" stroke="#161616" stroke-width="0.0571157"/>
<path d="M14.9612 16.0518L14.4194 15.716L16.085 15.5352L14.9612 16.0518ZM14.7687 16.3058L16.8059 16.069L16.5238 17.0507L14.7687 16.3058Z" fill="#161616" stroke="#161616" stroke-width="0.0571157"/>
<path d="M16.5235 17.051L14.2713 17.3524L14.7683 16.3062L16.5235 17.051ZM14.2713 17.3524L13.8325 17.5203L14.1146 15.9789L14.2713 17.3524ZM14.1146 15.9789L14.4191 15.7163L14.9608 16.0521L14.1146 15.9789ZM16.6354 15.8584L16.8055 16.0694L14.7683 16.3062L16.6354 15.8584Z" fill="#161616" stroke="#161616" stroke-width="0.0571157"/>
<path d="M14.7685 16.3062L14.961 16.0521L16.6355 15.8584L14.7685 16.3062ZM14.1147 15.979L14.7685 16.3062L14.2715 17.3524L14.1147 15.979Z" fill="#161616" stroke="#161616" stroke-width="0.0571157"/>
<path d="M14.961 16.0522L14.7685 16.3062L14.1147 15.979L14.961 16.0522Z" fill="#161616" stroke="#161616" stroke-width="0.0571157"/>
</svg>
