<svg width="21" height="20" viewBox="0 0 21 20" fill="none" xmlns="http://www.w3.org/2000/svg">
<path d="M20.625 10C20.625 4.47715 16.1478 0 10.625 0C5.10215 0 0.625 4.47715 0.625 10C0.625 15.5228 5.10215 20 10.625 20C16.1478 20 20.625 15.5228 20.625 10Z" fill="url(#paint0_radial_311_351)"/>
<path d="M7.23477 7.20817C9.10716 5.37495 12.1429 5.37495 14.0153 7.20817L14.2406 7.4288C14.3342 7.52046 14.3342 7.66907 14.2406 7.76073L13.4698 8.51547C13.4229 8.5613 13.3471 8.5613 13.3002 8.51547L12.9901 8.21185C11.6839 6.93295 9.56612 6.93295 8.2599 8.21185L7.92781 8.537C7.881 8.58283 7.80511 8.58283 7.7583 8.537L6.98744 7.78226C6.89382 7.6906 6.89382 7.54199 6.98744 7.45033L7.23477 7.20817ZM15.6095 8.76904L16.2955 9.44076C16.3892 9.53242 16.3892 9.68103 16.2955 9.77269L13.202 12.8015C13.1084 12.8932 12.9566 12.8932 12.863 12.8015C12.863 12.8015 12.863 12.8015 12.863 12.8015L10.6674 10.6519C10.644 10.629 10.6061 10.629 10.5827 10.6519C10.5827 10.6519 10.5827 10.6519 10.5827 10.6519L8.38712 12.8015C8.2935 12.8932 8.14171 12.8932 8.04809 12.8016C8.04809 12.8015 8.04809 12.8015 8.04809 12.8015L4.95449 9.77265C4.86087 9.68099 4.86087 9.53238 4.95449 9.44072L5.64056 8.769C5.73418 8.67734 5.88596 8.67734 5.97958 8.769L8.1752 10.9187C8.19861 10.9416 8.23655 10.9416 8.25996 10.9187C8.25996 10.9187 8.25996 10.9187 8.25996 10.9187L10.4555 8.769C10.5491 8.67734 10.7009 8.67733 10.7945 8.76899C10.7945 8.76899 10.7945 8.76899 10.7945 8.769L12.9901 10.9187C13.0135 10.9416 13.0515 10.9416 13.0749 10.9187L15.2705 8.76904C15.3641 8.67738 15.5159 8.67738 15.6095 8.76904Z" fill="white"/>
<defs>
<radialGradient id="paint0_radial_311_351" cx="0" cy="0" r="1" gradientUnits="userSpaceOnUse" gradientTransform="translate(0.625 10) scale(20)">
<stop stop-color="#5D9DF6"/>
<stop offset="1" stop-color="#006FFF"/>
</radialGradient>
</defs>
</svg>
