<svg width="23" height="22" viewBox="0 0 23 22" fill="none" xmlns="http://www.w3.org/2000/svg">
<path d="M11.8151 22C17.7968 22 22.6459 17.0751 22.6459 11C22.6459 4.92487 17.7968 0 11.8151 0C5.83348 0 0.984375 4.92487 0.984375 11C0.984375 17.0751 5.83348 22 11.8151 22Z" fill="#3375BB"/>
<path fill-rule="evenodd" clip-rule="evenodd" d="M11.4578 4.28482C11.7091 4.07173 12.0744 4.07173 12.3257 4.28482C14.166 5.84578 16.2643 5.83371 17.0764 5.82904C17.1169 5.82881 17.1542 5.82859 17.1881 5.82859C17.3694 5.82859 17.5431 5.90246 17.6703 6.03364C17.7976 6.16482 17.8677 6.34235 17.8649 6.52646C17.8265 9.11345 17.7244 10.9598 17.5241 12.3131C17.3238 13.6654 17.0168 14.5923 16.5221 15.2906C16.0239 15.9938 15.3836 16.3931 14.7017 16.7758C14.5836 16.8422 14.4631 16.9085 14.3398 16.9765C13.7412 17.3062 13.076 17.6727 12.2863 18.248C12.0505 18.4198 11.733 18.4198 11.4972 18.248C10.7083 17.6733 10.0439 17.3069 9.44627 16.9774C9.32237 16.9091 9.20133 16.8424 9.08265 16.7757C8.40133 16.3929 7.76184 15.9935 7.26458 15.29C6.77096 14.5916 6.46501 13.6648 6.26554 12.3127C6.06593 10.9596 5.9643 9.11338 5.92586 6.52646C5.92312 6.34235 5.99322 6.16482 6.12045 6.03364C6.24768 5.90246 6.4214 5.82859 6.6027 5.82859C6.63623 5.82859 6.67317 5.82881 6.71332 5.82904C7.51877 5.83371 9.61738 5.8459 11.4578 4.28482ZM7.29179 7.1993C7.33723 9.40424 7.43606 10.9676 7.60444 12.109C7.79009 13.3674 8.05167 14.0457 8.36437 14.4881C8.67343 14.9254 9.07905 15.2023 9.73803 15.5725C9.84535 15.6328 9.95856 15.6952 10.0774 15.7607C10.5843 16.0398 11.1943 16.3758 11.8918 16.8523C12.5902 16.3752 13.2011 16.039 13.7088 15.7596C13.8272 15.6945 13.9399 15.6324 14.0469 15.5724C14.7067 15.202 15.1133 14.925 15.4232 14.4875C15.7366 14.0451 15.999 13.3669 16.1853 12.1086C16.3542 10.9674 16.4535 9.40421 16.499 7.19942C15.4568 7.1653 13.6215 6.94672 11.8917 5.68217C10.1641 6.9452 8.33134 7.16477 7.29179 7.1993Z" fill="white"/>
</svg>
